<?xml version="1.0" encoding="UTF-8" standalone="no"?>
<svg
   xmlns:dc="http://purl.org/dc/elements/1.1/"
   xmlns:cc="http://creativecommons.org/ns#"
   xmlns:rdf="http://www.w3.org/1999/02/22-rdf-syntax-ns#"
   xmlns:svg="http://www.w3.org/2000/svg"
   xmlns="http://www.w3.org/2000/svg"
   xmlns:sodipodi="http://sodipodi.sourceforge.net/DTD/sodipodi-0.dtd"
   xmlns:inkscape="http://www.inkscape.org/namespaces/inkscape"
   inkscape:version="1.0 (4035a4fb49, 2020-05-01)"
   sodipodi:docname="logo.svg"
   width="92"
   height="28"
   viewBox="0 0 24.34136 7.40824"
   version="1.1"
   id="svg8">
  <metadata
     id="metadata19">
    <rdf:RDF>
      <cc:Work
         rdf:about="">
        <dc:format>image/svg+xml</dc:format>
        <dc:type
           rdf:resource="http://purl.org/dc/dcmitype/StillImage" />
        <dc:title></dc:title>
      </cc:Work>
    </rdf:RDF>
  </metadata>
  <defs
     id="defs17" />
  <sodipodi:namedview
     inkscape:current-layer="svg8"
     inkscape:window-maximized="1"
     inkscape:window-y="-9"
     inkscape:window-x="-9"
     inkscape:cy="45.633188"
     inkscape:cx="50"
     inkscape:zoom="9.16"
     showgrid="false"
     id="namedview15"
     inkscape:window-height="1051"
     inkscape:window-width="1920"
     inkscape:pageshadow="2"
     inkscape:pageopacity="0"
     guidetolerance="10"
     gridtolerance="10"
     objecttolerance="10"
     borderopacity="1"
     bordercolor="#666666"
     pagecolor="#ffffff" />
  <g
     id="layer1"
     transform="translate(-1.1553712,-279.98716)">
    <g
       id="g4591"
       transform="matrix(0.53242,0,0,0.53242,6.186,132.684)"
       stroke-width="1.878">
      <switch
         transform="matrix(0.26458,0,0,0.26458,0,270.542)"
         id="switch4528"
         stroke-width="1.878">
        <g
           id="g4526"
           stroke-width="1.878">
          <g
             id="g4524"
             stroke-width="1.878">
            <path
               id="path4520"
               d="M 94,42.4 C 85.8,35.2 69.2,23.2 50,23.2 30.8,23.2 14.2,35.2 6,42.4 3.8,44.3 2.5,47.1 2.5,50 c 0,2.9 1.3,5.7 3.5,7.6 8.2,7.2 24.8,19.2 44,19.2 19.2,0 35.8,-12 44,-19.2 2.2,-1.9 3.5,-4.7 3.5,-7.6 0,-2.9 -1.3,-5.7 -3.5,-7.6 z M 50,70.6 C 38.6,70.6 29.4,61.3 29.4,50 29.4,38.7 38.6,29.4 50,29.4 61.4,29.4 70.6,38.6 70.6,50 70.6,61.4 61.4,70.6 50,70.6 Z M 7.4,50 c 0,-1.5 0.6,-2.9 1.8,-3.9 4.9,-4.3 13.1,-10.5 23,-14.3 -4.8,4.6 -7.7,11.1 -7.7,18.3 0,7.2 3,13.6 7.7,18.3 C 22.3,64.5 14.1,58.4 9.2,54.1 8,52.9 7.4,51.5 7.4,50 Z m 83.4,3.9 c -4.9,4.3 -13.1,10.5 -23,14.3 4.8,-4.6 7.7,-11.1 7.7,-18.3 0,-7.2 -3,-13.6 -7.7,-18.3 9.9,3.9 18.1,10 23,14.3 1.1,1 1.8,2.4 1.8,3.9 0,1.7 -0.7,3.1 -1.8,4.1 z"
               class="st0"
               clip-rule="evenodd"
               fill-rule="evenodd"
               stroke-width="1.878" />
            <path
               id="path4522"
               d="m 50,37 c -1,0 -2,0.1 -2.9,0.3 1.3,1 2.2,2.5 2.2,4.3 0,3 -2.4,5.4 -5.4,5.4 -2.3,0 -4.3,-1.5 -5,-3.6 -1.2,1.9 -1.9,4.2 -1.9,6.6 0,7.2 5.8,13 13,13 7.2,0 13,-5.8 13,-13 0,-7.2 -5.8,-13 -13,-13 z"
               class="st0"
               clip-rule="evenodd"
               fill-rule="evenodd"
               stroke-width="1.878" />
          </g>
        </g>
      </switch>
    </g>
    <text
       xml:space="preserve"
       style="line-height:125%;-inkscape-font-specification:'Brandon Text Bold';text-align:center"
       x="3.6029999"
       y="287.16699"
       id="text4595"
       font-style="normal"
       font-variant="normal"
       font-weight="700"
       font-stretch="normal"
       font-size="9.878px"
       font-family="'Brandon Text'"
       letter-spacing="0"
       word-spacing="0"
       writing-mode="lr-tb"
       text-anchor="middle"
       fill="#000000"
       fill-opacity="1"
       stroke="none"
       stroke-width="0.265"
       stroke-linecap="butt"
       stroke-linejoin="miter"
       stroke-opacity="1"><tspan
         id="tspan4593"
         x="3.6029999"
         y="287.16699"
         stroke-width="0.265">B</tspan></text>
    <text
       xml:space="preserve"
       style="line-height:125%;-inkscape-font-specification:'Brandon Text Bold';text-align:center"
       x="-22.83"
       y="287.17999"
       id="text4595-4"
       transform="scale(-1,1)"
       font-style="normal"
       font-variant="normal"
       font-weight="700"
       font-stretch="normal"
       font-size="9.91px"
       font-family="'Brandon Text'"
       letter-spacing="0"
       word-spacing="0"
       writing-mode="lr-tb"
       text-anchor="middle"
       fill="#000000"
       fill-opacity="1"
       stroke="none"
       stroke-width="0.265"
       stroke-linecap="butt"
       stroke-linejoin="miter"
       stroke-opacity="1"><tspan
         id="tspan4593-2"
         x="-22.83"
         y="287.17999"
         stroke-width="0.265">B</tspan></text>
  </g>
  <style
     id="style4518"
     type="text/css">.st0{fill-rule:evenodd;clip-rule:evenodd}</style>
</svg>
